<svg width="691" height="429" viewBox="0 0 691 429" fill="none" xmlns="http://www.w3.org/2000/svg">
<g clip-path="url(#clip0)">
<path d="M416.314 176.144C432.116 176.144 444.926 163.363 444.926 147.598C444.926 131.832 432.116 119.051 416.314 119.051C400.511 119.051 387.701 131.832 387.701 147.598C387.701 163.363 400.511 176.144 416.314 176.144Z" fill="#6C63FF"/>
<path d="M531.718 176.144C547.52 176.144 560.33 163.363 560.33 147.598C560.33 131.832 547.52 119.051 531.718 119.051C515.915 119.051 503.105 131.832 503.105 147.598C503.105 163.363 515.915 176.144 531.718 176.144Z" fill="#6C63FF"/>
<path d="M647.122 176.144C662.924 176.144 675.734 163.363 675.734 147.598C675.734 131.832 662.924 119.051 647.122 119.051C631.32 119.051 618.509 131.832 618.509 147.598C618.509 163.363 631.32 176.144 647.122 176.144Z" fill="#6C63FF"/>
<path d="M11.9219 12.3702C13.5022 12.3702 14.7832 11.0921 14.7832 9.51552C14.7832 7.93895 13.5022 6.66089 11.9219 6.66089C10.3417 6.66089 9.06067 7.93895 9.06067 9.51552C9.06067 11.0921 10.3417 12.3702 11.9219 12.3702Z" fill="#F86B75"/>
<path d="M20.5057 12.3702C22.086 12.3702 23.367 11.0921 23.367 9.51552C23.367 7.93895 22.086 6.66089 20.5057 6.66089C18.9255 6.66089 17.6445 7.93895 17.6445 9.51552C17.6445 11.0921 18.9255 12.3702 20.5057 12.3702Z" fill="#FAD375"/>
<path d="M29.0895 12.3702C30.6697 12.3702 31.9507 11.0921 31.9507 9.51552C31.9507 7.93895 30.6697 6.66089 29.0895 6.66089C27.5092 6.66089 26.2282 7.93895 26.2282 9.51552C26.2282 11.0921 27.5092 12.3702 29.0895 12.3702Z" fill="#8BCC55"/>
<path d="M260.375 53.7623H63.9015V114.661H260.375V53.7623Z" fill="#6C63FF"/>
<path d="M347.643 0H0.476868V205.534H347.643V0Z" stroke="white" stroke-miterlimit="10"/>
<path d="M0.476868 15.5657H347.643" stroke="white" stroke-miterlimit="10"/>
<path d="M12.8757 10.467C14.4559 10.467 15.7369 9.1889 15.7369 7.61233C15.7369 6.03575 14.4559 4.75769 12.8757 4.75769C11.2954 4.75769 10.0144 6.03575 10.0144 7.61233C10.0144 9.1889 11.2954 10.467 12.8757 10.467Z" stroke="#3F3D56" stroke-miterlimit="10"/>
<path d="M21.4595 10.467C23.0397 10.467 24.3207 9.1889 24.3207 7.61233C24.3207 6.03575 23.0397 4.75769 21.4595 4.75769C19.8792 4.75769 18.5982 6.03575 18.5982 7.61233C18.5982 9.1889 19.8792 10.467 21.4595 10.467Z" stroke="#3F3D56" stroke-miterlimit="10"/>
<path d="M30.0433 10.467C31.6235 10.467 32.9045 9.1889 32.9045 7.61233C32.9045 6.03575 31.6235 4.75769 30.0433 4.75769C28.463 4.75769 27.182 6.03575 27.182 7.61233C27.182 9.1889 28.463 10.467 30.0433 10.467Z" stroke="#3F3D56" stroke-miterlimit="10"/>
<path d="M272.297 41.8679H75.8234V102.767H272.297V41.8679Z" stroke="#3F3D56" stroke-miterlimit="10"/>
<path d="M302.34 141.305H39.1039V149.179H302.34V141.305Z" fill="#F2F2F2"/>
<path d="M302.34 160.204H39.1039V168.079H302.34V160.204Z" fill="#F2F2F2"/>
<path d="M302.34 179.104H39.1039V186.979H302.34V179.104Z" fill="#F2F2F2"/>
<path d="M305.201 137.498H41.9651V145.373H305.201V137.498Z" stroke="#3F3D56" stroke-miterlimit="10"/>
<path d="M305.201 156.398H41.9651V164.273H305.201V156.398Z" stroke="#3F3D56" stroke-miterlimit="10"/>
<path d="M305.201 175.298H41.9651V183.172H305.201V175.298Z" stroke="#3F3D56" stroke-miterlimit="10"/>
<path d="M92.0372 236.091C93.6175 236.091 94.8985 234.813 94.8985 233.237C94.8985 231.66 93.6175 230.382 92.0372 230.382C90.457 230.382 89.176 231.66 89.176 233.237C89.176 234.813 90.457 236.091 92.0372 236.091Z" fill="#F86B75"/>
<path d="M100.621 236.091C102.201 236.091 103.482 234.813 103.482 233.237C103.482 231.66 102.201 230.382 100.621 230.382C99.0408 230.382 97.7598 231.66 97.7598 233.237C97.7598 234.813 99.0408 236.091 100.621 236.091Z" fill="#FAD375"/>
<path d="M109.205 236.091C110.785 236.091 112.066 234.813 112.066 233.237C112.066 231.66 110.785 230.382 109.205 230.382C107.625 230.382 106.344 231.66 106.344 233.237C106.344 234.813 107.625 236.091 109.205 236.091Z" fill="#8BCC55"/>
<path d="M340.49 277.484H144.017V338.383H340.49V277.484Z" fill="#6C63FF"/>
<path d="M427.758 265.59V429.256H80.5922V223.722H362.903" stroke="white" stroke-miterlimit="10"/>
<path d="M80.5922 239.287H363.38" stroke="#3F3D56" stroke-miterlimit="10"/>
<path d="M92.991 234.188C94.5712 234.188 95.8522 232.91 95.8522 231.334C95.8522 229.757 94.5712 228.479 92.991 228.479C91.4107 228.479 90.1297 229.757 90.1297 231.334C90.1297 232.91 91.4107 234.188 92.991 234.188Z" stroke="#3F3D56" stroke-miterlimit="10"/>
<path d="M101.575 234.188C103.155 234.188 104.436 232.91 104.436 231.334C104.436 229.757 103.155 228.479 101.575 228.479C99.9945 228.479 98.7135 229.757 98.7135 231.334C98.7135 232.91 99.9945 234.188 101.575 234.188Z" stroke="#3F3D56" stroke-miterlimit="10"/>
<path d="M110.159 234.188C111.739 234.188 113.02 232.91 113.02 231.334C113.02 229.757 111.739 228.479 110.159 228.479C108.578 228.479 107.297 229.757 107.297 231.334C107.297 232.91 108.578 234.188 110.159 234.188Z" stroke="#3F3D56" stroke-miterlimit="10"/>
<path d="M352.412 265.589H155.939V326.488H352.412V265.589Z" stroke="#3F3D56" stroke-miterlimit="10"/>
<path d="M374.348 71.4742C375.929 71.4742 377.21 70.1961 377.21 68.6195C377.21 67.043 375.929 65.7649 374.348 65.7649C372.768 65.7649 371.487 67.043 371.487 68.6195C371.487 70.1961 372.768 71.4742 374.348 71.4742Z" fill="#F86B75"/>
<path d="M382.932 71.4742C384.512 71.4742 385.793 70.1961 385.793 68.6195C385.793 67.043 384.512 65.7649 382.932 65.7649C381.352 65.7649 380.071 67.043 380.071 68.6195C380.071 70.1961 381.352 71.4742 382.932 71.4742Z" fill="#FAD375"/>
<path d="M391.516 71.4742C393.096 71.4742 394.377 70.1961 394.377 68.6195C394.377 67.043 393.096 65.7649 391.516 65.7649C389.936 65.7649 388.655 67.043 388.655 68.6195C388.655 70.1961 389.936 71.4742 391.516 71.4742Z" fill="#8BCC55"/>
<path d="M710.07 59.104H362.903V264.638H710.07V59.104Z" stroke="white" stroke-miterlimit="10"/>
<path d="M362.903 74.6697H710.07" stroke="white" stroke-miterlimit="10"/>
<path d="M375.302 69.5711C376.882 69.5711 378.163 68.293 378.163 66.7165C378.163 65.1399 376.882 63.8618 375.302 63.8618C373.722 63.8618 372.441 65.1399 372.441 66.7165C372.441 68.293 373.722 69.5711 375.302 69.5711Z" stroke="#3F3D56" stroke-miterlimit="10"/>
<path d="M383.886 69.5711C385.466 69.5711 386.747 68.293 386.747 66.7165C386.747 65.1399 385.466 63.8618 383.886 63.8618C382.306 63.8618 381.025 65.1399 381.025 66.7165C381.025 68.293 382.306 69.5711 383.886 69.5711Z" stroke="#3F3D56" stroke-miterlimit="10"/>
<path d="M392.47 69.5711C394.05 69.5711 395.331 68.293 395.331 66.7165C395.331 65.1399 394.05 63.8618 392.47 63.8618C390.889 63.8618 389.608 65.1399 389.608 66.7165C389.608 68.293 390.889 69.5711 392.47 69.5711Z" stroke="#3F3D56" stroke-miterlimit="10"/>
<path d="M421.082 171.386C436.885 171.386 449.695 158.606 449.695 142.84C449.695 127.074 436.885 114.294 421.082 114.294C405.28 114.294 392.47 127.074 392.47 142.84C392.47 158.606 405.28 171.386 421.082 171.386Z" stroke="#3F3D56" stroke-miterlimit="10"/>
<path d="M536.486 171.386C552.289 171.386 565.099 158.606 565.099 142.84C565.099 127.074 552.289 114.294 536.486 114.294C520.684 114.294 507.874 127.074 507.874 142.84C507.874 158.606 520.684 171.386 536.486 171.386Z" stroke="#3F3D56" stroke-miterlimit="10"/>
<path d="M651.891 171.386C667.693 171.386 680.503 158.606 680.503 142.84C680.503 127.074 667.693 114.294 651.891 114.294C636.088 114.294 623.278 127.074 623.278 142.84C623.278 158.606 636.088 171.386 651.891 171.386Z" stroke="#3F3D56" stroke-miterlimit="10"/>
<path d="M455.894 195.651H377.687V203.263H455.894V195.651Z" fill="#F2F2F2"/>
<path d="M572.252 195.651H494.044V203.263H572.252V195.651Z" fill="#F2F2F2"/>
<path d="M688.61 195.651H610.402V203.263H688.61V195.651Z" fill="#F2F2F2"/>
<path d="M459.709 192.796H381.501V200.409H459.709V192.796Z" stroke="#3F3D56" stroke-miterlimit="10"/>
<path d="M576.067 192.796H497.859V200.409H576.067V192.796Z" stroke="#3F3D56" stroke-miterlimit="10"/>
<path d="M692.425 192.796H614.217V200.409H692.425V192.796Z" stroke="#3F3D56" stroke-miterlimit="10"/>
<path d="M153.554 362.171H93.4679V413.555H153.554V362.171Z" fill="#F2F2F2"/>
<path d="M264.667 362.647H204.58V414.03H264.667V362.647Z" fill="#F2F2F2"/>
<path d="M375.779 363.123H315.693V414.506H375.779V363.123Z" fill="#F2F2F2"/>
<path d="M162.138 352.656H102.052V404.039H162.138V352.656Z" stroke="#3F3D56" stroke-miterlimit="10"/>
<path d="M273.25 353.132H213.164V404.515H273.25V353.132Z" stroke="#3F3D56" stroke-miterlimit="10"/>
<path d="M384.363 353.607H324.276V404.991H384.363V353.607Z" stroke="#3F3D56" stroke-miterlimit="10"/>
</g>
<defs>
<clipPath id="clip0">
<rect width="794" height="429" fill="white"/>
</clipPath>
</defs>
</svg>
